<?xml version="1.0" encoding="UTF-8" standalone="no"?>
<!-- Generator: Adobe Illustrator 18.1.0, SVG Export Plug-In . SVG Version: 6.00 Build 0)  -->

<svg
   xmlns:osb="http://www.openswatchbook.org/uri/2009/osb"
   xmlns:dc="http://purl.org/dc/elements/1.1/"
   xmlns:cc="http://creativecommons.org/ns#"
   xmlns:rdf="http://www.w3.org/1999/02/22-rdf-syntax-ns#"
   xmlns:svg="http://www.w3.org/2000/svg"
   xmlns="http://www.w3.org/2000/svg"
   xmlns:xlink="http://www.w3.org/1999/xlink"
   xmlns:sodipodi="http://sodipodi.sourceforge.net/DTD/sodipodi-0.dtd"
   xmlns:inkscape="http://www.inkscape.org/namespaces/inkscape"
   version="1.0"
   id="Layer_1"
   x="0px"
   y="0px"
   viewBox="0 0 70 70"
   enable-background="new 0 0 150 150"
   xml:space="preserve"
   inkscape:version="0.91 r13725"
   sodipodi:docname="alpha_geek-match-dark.svg"
   inkscape:export-filename="/home/ryank/alphageek_logo-match-dark.png"
   inkscape:export-xdpi="385.71429"
   inkscape:export-ydpi="385.71429"
   width="70"
   height="70"><metadata
     id="metadata3957"><rdf:RDF><cc:Work
         rdf:about=""><dc:format>image/svg+xml</dc:format><dc:type
           rdf:resource="http://purl.org/dc/dcmitype/StillImage" /><dc:title></dc:title></cc:Work></rdf:RDF></metadata><defs
     id="defs3955"><linearGradient
       inkscape:collect="always"
       id="linearGradient5692"><stop
         style="stop-color:#60a344;stop-opacity:1;"
         offset="0"
         id="stop5694" /><stop
         style="stop-color:#b6cf60;stop-opacity:1"
         offset="1"
         id="stop5696" /></linearGradient><linearGradient
       id="linearGradient5684"
       osb:paint="gradient"><stop
         style="stop-color:#000000;stop-opacity:1;"
         offset="0"
         id="stop5686" /><stop
         style="stop-color:#000000;stop-opacity:0;"
         offset="1"
         id="stop5688" /></linearGradient><linearGradient
       id="linearGradient5668"
       osb:paint="solid"><stop
         style="stop-color:#3eb726;stop-opacity:1;"
         offset="0"
         id="stop5670" /></linearGradient><linearGradient
       inkscape:collect="always"
       xlink:href="#linearGradient5692"
       id="linearGradient5698"
       x1="72.077438"
       y1="144.68813"
       x2="72.458412"
       y2="126.44813"
       gradientUnits="userSpaceOnUse"
       gradientTransform="translate(1.7675178,-1.9490438)" /></defs><sodipodi:namedview
     pagecolor="#ffffff"
     bordercolor="#666666"
     borderopacity="1"
     objecttolerance="10"
     gridtolerance="10"
     guidetolerance="10"
     inkscape:pageopacity="0"
     inkscape:pageshadow="2"
     inkscape:window-width="1680"
     inkscape:window-height="998"
     id="namedview3953"
     showgrid="false"
     inkscape:zoom="2.9462783"
     inkscape:cx="-30.599334"
     inkscape:cy="21.034603"
     inkscape:window-x="1440"
     inkscape:window-y="0"
     inkscape:window-maximized="1"
     inkscape:current-layer="g6007"
     showguides="false"
     fit-margin-top="0"
     fit-margin-left="0"
     fit-margin-right="0"
     fit-margin-bottom="0"><inkscape:grid
       type="xygrid"
       id="grid5654"
       originx="-0.054129764"
       originy="-23.870181" /></sodipodi:namedview><g
     id="g4616"
     transform="matrix(1.1315303,0,0,1.0261442,-9.2785481,-56.179686)"><g
       id="g4636"
       transform="matrix(1,0,0,1.0117412,0,-0.02239466)"
       inkscape:export-xdpi="182.5"
       inkscape:export-ydpi="182.5"><g
         id="g3921"
         transform="matrix(0.37525566,0,0,0.36152818,10.416157,60.71354)"><g
           id="g6007"
           transform="translate(-8.8696977e-7,12.660019)"><path
             d="m 120,88.539983 0,-1.8 0,-48.6 c 0,-2.4 -2,-4.8 -4.4,-4.8 l -52.699998,0 c -0.5,3 -0.8,5.9 -1.2,10.8 -0.3,7 -0.4,10.3 0.3,20.1 -5.4,-0.6 -10.8,-1.3 -16.2,-2 -6.8,-0.8 -8.2,-0.9 -12,-1.1 2.6,-3.9 2.9,-4.6 5.6,-7.7 -3.2,-6.1 -6.3,-13.1 -7.7,-20.1 l -4.2,0 c -2.4,0 -4.6,2.4 -4.6,4.8 l 0,55.8 c 0,2.4 2.2,4.5 4.6,4.5 l 63.6,0 -2.8,-2.2 c -1.1,-0.8 -2.2,-1.5 -3.2,-2.2 0,0 0.1,-0.1 0.1,-0.1 l -1.3,-1 c -3.5,1.3 -7,1.5 -10.1,0.6 -2.7,-0.7 -5.3,-2.3 -7.5,-4.7 -4.9,-5.3 -6.2,-12.8 -3.9,-19.2 l 9.8,10.6 10.1,-2.4 3.1,-9.9 -9.8,-10.6 c 6.6,-1.8 13.9,0.1 18.9,5.4 2.2,2.4 3.5,5 4,7.7 0.7,3.1 0.2,6.7 -1.3,10.1 l 12.699998,10.2 c 3.3,2.4 6.3,4.4 9,6 0.6,-0.8 1,-1.7 1,-2.7 l 0,-5.5 z"
             id="path4719"
             inkscape:connector-curvature="0"
             style="fill:none" /><path
             d="m 130,81.139983 0,5.6 0,1.8 0,5.3 c 0,2.6 -0.5,5 -1.7,7.099997 2,0.6 3.7,1 5.3,1 0.7,-4.599997 0.4,-11.199997 -3.6,-20.799997 z"
             id="path4721"
             inkscape:connector-curvature="0"
             style="fill:none" /><path
             d="m 43.600002,11.939983 c 0.6,3.2 2.2,7.4 4.8,11.4 l 30.3,0 c -13.2,-8 -25.8,-12.5 -35.1,-11.4 z"
             id="path4723"
             inkscape:connector-curvature="0"
             style="fill:none" /><path
             d="m 55.900002,34.839983 c 0.4,-0.4 0.7,-0.8 1,-1.1 l -1.8,0 c 0.3,0.3 0.5,0.7 0.8,1.1 z"
             id="path4725"
             inkscape:connector-curvature="0"
             style="fill:none" /><path
             d="m 108.7,112.33998 -68.399998,0 c -3.2,0 -6.3,2.4 -6.3,5.6 l 0,3.2 c 0,0.5 0.5,1.2 0.6,1.2 l 79.699998,0 c 0.1,0 0.6,-0.7 0.6,-1.2 l 0,-3.2 c 0.1,-3.2 -3,-5.6 -6.2,-5.6 z"
             id="path4727"
             inkscape:connector-curvature="0"
             style="fill:#2c3e4c;fill-opacity:0.99607843" /><path
             d="m 33.200002,17.639983 c 1.4,-2.1 2.3,-3.4 3.1,-4.4 -1.4,1.7 -1.9,2.4 -3.1,4.4 z"
             id="path4729"
             inkscape:connector-curvature="0"
             style="fill:#b6cf60" /><path
             d="m 43.600002,12.039983 c 9.3,-1.1 21.9,3.3 35,11.3 l 6.6,0 c -19.7,-17.9999996 -34.8,-23.89999958 -40.2,-19.4999996 -1.7,1.9 -2.1,4.5999997 -1.4,8.1999996 z"
             id="path4731"
             inkscape:connector-curvature="0"
             style="fill:#6d6d6f;fill-opacity:0.96862745" /><path
             d="m 39.700002,9.1399831 c 0.8,-0.8 1.7,-1.7 2.6,-2.5999997 -1,0.7999997 -1.9,1.6999997 -2.6,2.5999997 z"
             id="path4733"
             inkscape:connector-curvature="0"
             style="fill:#b6cf60" /><path
             d="m 132.7,107.13998 c 1,-1 2.1,-2 2.9,-2.9 -0.8,0.8 -1.9,1.8 -2.9,2.9 z"
             id="path4735"
             inkscape:connector-curvature="0"
             style="fill:#9ec9d4" /><path
             d="m 137.9,101.53998 c 0.5,-0.6 0.9,-1.1 1.3,-1.699997 -0.4,0.499997 -0.9,1.099997 -1.3,1.699997 z"
             id="path4737"
             inkscape:connector-curvature="0"
             style="fill:#9ec9d4" /><path
             d="m 133.6,101.93998 c 2.5,0.1 4.3,-0.7 5.4,-2.099997 3.4,-6.3 -2,-17.3 -9,-26.4 l 0,7.8 c 4,9.5 4.4,16.1 3.6,20.699997 z"
             id="path4739"
             inkscape:connector-curvature="0"
             style="fill:#6c6c6e;fill-opacity:0.96862745" /><path
             d="m 94.900002,101.13998 -3.8,-2.799997 -63.5,0 c -2.4,0 -4.6,-2.1 -4.6,-4.5 l 0,-55.7 c 0,-2.4 2.2,-4.8 4.6,-4.8 l 4.2,0 c -0.7,-3 -1,-7 -0.4,-10 l -3.7,0 c -8.2,0 -14.7,6.7 -14.7,14.8 l 0,55.8 c 0,8.099997 6.5,14.499997 14.6,14.499997 l 79.599998,0 c -4.1,-2 -8.199998,-4.8 -12.099998,-7.5 -0.1,-0.1 -0.1,0.1 -0.2,0.2 z"
             id="path4741"
             inkscape:connector-curvature="0"
             style="fill:#149c82;fill-opacity:0.99607843" /><path
             d="m 48.400002,23.339983 c 1.8,3 4,7 6.7,10 l 1.8,0 c 3.4,-3 4.2,-4.5 7.5,-7.5 -0.7,3 -1.2,5.5 -1.6,7.5 l 52.699998,0 c 2.4,0 4.4,2.4 4.4,4.8 l 0,48.7 0,1.8 0,5.3 c 0,1 -0.4,2 -1,2.7 3.6,2.1 6.6,3.499997 9.3,4.399997 1.2,-2.099997 1.7,-4.499997 1.7,-7.099997 l 0,-5.3 0,-1.8 0,-5.6 0,-7.8 0,-35.3 c 0,-8.1 -6.3,-14.8 -14.4,-14.8 l -30.199998,0 -6.6,0 -30.3,0 z"
             id="path4743"
             inkscape:connector-curvature="0"
             style="fill:#149c82;fill-opacity:0.99607843" /><path
             d="m 31.700002,33.739983 c 1.4,6.8 4.5,13.8 7.6,20 -2.6,3.1 -2.9,3.6 -5.6,7.5 3.8,0.2 5.2,0.3 12,1.1 5.4,0.7 10.8,1.4 16.2,2 -0.7,-9.9 -0.5,-13.1 -0.3,-20 0.4,-4.8 0.7,-7.8 1.2,-10.6 0.4,-2.3 0.9,-4.5 1.6,-7.5 -3.3,3 -4.1,3.8 -7.5,7.5 -0.3,0.3 -0.7,0.7 -1,1.1 -0.3,-0.4 -0.5,-0.7 -0.8,-1.1 -2.7,-3.7 -5,-7.2 -6.7,-10.3 -2.5,-4.4 -4.1,-8.2 -4.8,-11.4 -0.7,-3.4999999 -0.3,-6.2999996 1.3,-8.1999996 -0.8,0.8 -1.8,1.7 -2.7,2.6 -0.9,0.8999997 -1.8,1.7999997 -2.6,2.5999997 -1.6,1.6999999 -2.1,2.3999999 -3.4,4.1999999 -0.7,1 -1.6,2.3 -3.1,4.4 -1,1.8 -1.6,3.7 -1.9,5.8 -0.4,3.2 -0.2,6.7 0.5,10.3 z"
             id="path4745"
             inkscape:connector-curvature="0"
             style="fill:#2c3e4d;fill-opacity:0.99607843" /><path
             d="m 133.7,101.93998 c -1.5,0 -3.3,-0.4 -5.3,-1 -2.7,-0.9 -5.9,-2.299997 -9.4,-4.399997 -2.8,-1.6 -5.8,-3.6 -9,-6 l -12.799998,-10.1 c 1.5,-3.4 2,-7 1.3,-10.1 -0.5,-2.7 -1.8,-5.4 -4,-7.7 -4.9,-5.3 -12.2,-7.2 -18.9,-5.4 l 9.8,10.6 -3.1,9.9 -10.1,2.3 -9.8,-10.6 c -2.3,6.5 -1,13.9 3.9,19.2 2.2,2.4 4.8,3.9 7.5,4.7 3,0.9 6.6,0.7 10.1,-0.6 l 1.3,1 c 0,0 -0.1,0.1 -0.1,0.1 1,0.7 2.1,1.4 3.2,2.2 l 2.8,2.1 3.8,2.799997 c 0.1,-0.1 0.1,-0.1 0.1,-0.2 3.9,2.7 7.999998,5.5 12.099998,7.6 7.9,4.1 15.8,6.1 22.3,1.6 1,-0.9 2.1,-2 3.2,-3.1 1,-1 2.1,-2 2.9,-2.9 0.7,-0.8 1.5,-1.7 2.2,-2.7 0.5,-0.6 0.9,-1.2 1.3,-1.699997 -0.9,1.699997 -2.7,2.499997 -5.3,2.399997 z"
             id="path4747"
             inkscape:connector-curvature="0"
             style="fill:#2c3e4c;fill-opacity:0.99607843" /></g></g></g></g></svg>