<?xml version="1.0" encoding="UTF-8" standalone="no"?>
<!-- Generator: Adobe Illustrator 18.1.0, SVG Export Plug-In . SVG Version: 6.00 Build 0)  -->

<svg
   xmlns:osb="http://www.openswatchbook.org/uri/2009/osb"
   xmlns:dc="http://purl.org/dc/elements/1.1/"
   xmlns:cc="http://creativecommons.org/ns#"
   xmlns:rdf="http://www.w3.org/1999/02/22-rdf-syntax-ns#"
   xmlns:svg="http://www.w3.org/2000/svg"
   xmlns="http://www.w3.org/2000/svg"
   xmlns:xlink="http://www.w3.org/1999/xlink"
   xmlns:sodipodi="http://sodipodi.sourceforge.net/DTD/sodipodi-0.dtd"
   xmlns:inkscape="http://www.inkscape.org/namespaces/inkscape"
   version="1.0"
   id="Layer_1"
   x="0px"
   y="0px"
   viewBox="0 0 70 70"
   enable-background="new 0 0 150 150"
   xml:space="preserve"
   inkscape:version="0.91 r13725"
   sodipodi:docname="alpha_geek-match-inverse.svg"
   inkscape:export-filename="/home/ryank/alphageek_logo-match-inverse.png"
   inkscape:export-xdpi="385.71429"
   inkscape:export-ydpi="385.71429"
   width="70"
   height="70"><metadata
     id="metadata3957"><rdf:RDF><cc:Work
         rdf:about=""><dc:format>image/svg+xml</dc:format><dc:type
           rdf:resource="http://purl.org/dc/dcmitype/StillImage" /><dc:title></dc:title></cc:Work></rdf:RDF></metadata><defs
     id="defs3955"><linearGradient
       inkscape:collect="always"
       id="linearGradient5692"><stop
         style="stop-color:#60a344;stop-opacity:1;"
         offset="0"
         id="stop5694" /><stop
         style="stop-color:#b6cf60;stop-opacity:1"
         offset="1"
         id="stop5696" /></linearGradient><linearGradient
       id="linearGradient5684"
       osb:paint="gradient"><stop
         style="stop-color:#000000;stop-opacity:1;"
         offset="0"
         id="stop5686" /><stop
         style="stop-color:#000000;stop-opacity:0;"
         offset="1"
         id="stop5688" /></linearGradient><linearGradient
       id="linearGradient5668"
       osb:paint="solid"><stop
         style="stop-color:#3eb726;stop-opacity:1;"
         offset="0"
         id="stop5670" /></linearGradient><linearGradient
       inkscape:collect="always"
       xlink:href="#linearGradient5692"
       id="linearGradient5698"
       x1="72.077438"
       y1="144.68813"
       x2="72.458412"
       y2="126.44813"
       gradientUnits="userSpaceOnUse"
       gradientTransform="translate(1.7675178,-1.9490438)" /></defs><sodipodi:namedview
     pagecolor="#ffffff"
     bordercolor="#666666"
     borderopacity="1"
     objecttolerance="10"
     gridtolerance="10"
     guidetolerance="10"
     inkscape:pageopacity="0"
     inkscape:pageshadow="2"
     inkscape:window-width="1680"
     inkscape:window-height="998"
     id="namedview3953"
     showgrid="false"
     inkscape:zoom="2.9462783"
     inkscape:cx="-48.102987"
     inkscape:cy="-6.3099688"
     inkscape:window-x="1440"
     inkscape:window-y="0"
     inkscape:window-maximized="1"
     inkscape:current-layer="g6024"
     showguides="false"
     fit-margin-top="0"
     fit-margin-left="0"
     fit-margin-right="0"
     fit-margin-bottom="0"><inkscape:grid
       type="xygrid"
       id="grid5654"
       originx="-0.054129764"
       originy="-23.870181" /></sodipodi:namedview><g
     id="g4616"
     transform="matrix(1.1315303,0,0,1.0261442,-9.2785481,-56.179686)"><g
       id="g4636"
       transform="matrix(1,0,0,1.0117412,0,-0.02239466)"
       inkscape:export-xdpi="182.5"
       inkscape:export-ydpi="182.5"><g
         id="g3921"
         transform="matrix(0.37525566,0,0,0.36152818,10.416157,60.71354)"><g
           id="g6024"><path
             style="fill:none"
             inkscape:connector-curvature="0"
             id="path3923"
             d="m 120,101.2 0,-1.8 0,-48.6 c 0,-2.4 -2,-4.8 -4.4,-4.8 l -52.7,0 c -0.5,3 -0.8,5.9 -1.2,10.8 -0.3,7 -0.4,10.3 0.3,20.1 C 56.6,76.3 51.2,75.6 45.8,74.9 39,74.1 37.6,74 33.8,73.8 36.4,69.9 36.7,69.2 39.4,66.1 36.2,60 33.1,53 31.7,46 l -4.2,0 c -2.4,0 -4.6,2.4 -4.6,4.8 l 0,55.8 c 0,2.4 2.2,4.5 4.6,4.5 l 63.6,0 -2.8,-2.2 c -1.1,-0.8 -2.2,-1.5 -3.2,-2.2 0,0 0.1,-0.1 0.1,-0.1 l -1.3,-1 c -3.5,1.3 -7,1.5 -10.1,0.6 -2.7,-0.7 -5.3,-2.3 -7.5,-4.7 C 61.4,96.2 60.1,88.7 62.4,82.3 L 72.2,92.9 82.3,90.5 85.4,80.6 75.6,70 c 6.6,-1.8 13.9,0.1 18.9,5.4 2.2,2.4 3.5,5 4,7.7 0.7,3.1 0.2,6.7 -1.3,10.1 l 12.7,10.2 c 3.3,2.4 6.3,4.4 9,6 0.6,-0.8 1,-1.7 1,-2.7 l 0,-5.5 z" /><path
             style="fill:none"
             inkscape:connector-curvature="0"
             id="path3925"
             d="m 130,93.8 0,5.6 0,1.8 0,5.3 c 0,2.6 -0.5,5 -1.7,7.1 2,0.6 3.7,1 5.3,1 0.7,-4.6 0.4,-11.2 -3.6,-20.8 z" /><path
             style="fill:none"
             inkscape:connector-curvature="0"
             id="path3927"
             d="m 43.6,24.6 c 0.6,3.2 2.2,7.4 4.8,11.4 l 30.3,0 C 65.5,28 52.9,23.5 43.6,24.6 Z" /><path
             style="fill:none"
             inkscape:connector-curvature="0"
             id="path3929"
             d="m 55.9,47.5 c 0.4,-0.4 0.7,-0.8 1,-1.1 l -1.8,0 c 0.3,0.3 0.5,0.7 0.8,1.1 z" /><path
             style="fill:#149c82;fill-opacity:0.99607843"
             inkscape:connector-curvature="0"
             id="path3931"
             d="m 108.7,125 -68.4,0 c -3.2,0 -6.3,2.4 -6.3,5.6 l 0,3.2 c 0,0.5 0.5,1.2 0.6,1.2 l 79.7,0 c 0.1,0 0.6,-0.7 0.6,-1.2 l 0,-3.2 c 0.1,-3.2 -3,-5.6 -6.2,-5.6 z" /><path
             style="fill:#b6cf60"
             inkscape:connector-curvature="0"
             id="path3933"
             d="m 33.2,30.3 c 1.4,-2.1 2.3,-3.4 3.1,-4.4 -1.4,1.7 -1.9,2.4 -3.1,4.4 z" /><path
             style="fill:#149c82;fill-opacity:0.47333332"
             inkscape:connector-curvature="0"
             id="path3935"
             d="m 43.6,24.7 c 9.3,-1.1 21.9,3.3 35,11.3 l 6.6,0 C 65.5,18 50.4,12.1 45,16.5 c -1.7,1.9 -2.1,4.6 -1.4,8.2 z" /><path
             style="fill:#b6cf60"
             inkscape:connector-curvature="0"
             id="path3937"
             d="m 39.7,21.8 c 0.8,-0.8 1.7,-1.7 2.6,-2.6 -1,0.8 -1.9,1.7 -2.6,2.6 z" /><path
             style="fill:#9ec9d4"
             inkscape:connector-curvature="0"
             id="path3939"
             d="m 132.7,119.8 c 1,-1 2.1,-2 2.9,-2.9 -0.8,0.8 -1.9,1.8 -2.9,2.9 z" /><path
             style="fill:#9ec9d4"
             inkscape:connector-curvature="0"
             id="path3941"
             d="m 137.9,114.2 c 0.5,-0.6 0.9,-1.1 1.3,-1.7 -0.4,0.5 -0.9,1.1 -1.3,1.7 z" /><path
             style="fill:#139c81;fill-opacity:0.4745098"
             inkscape:connector-curvature="0"
             id="path3943"
             d="m 133.6,114.6 c 2.5,0.1 4.3,-0.7 5.4,-2.1 3.4,-6.3 -2,-17.3 -9,-26.4 l 0,7.8 c 4,9.5 4.4,16.1 3.6,20.7 z" /><path
             style="fill:#2c3e50;fill-opacity:0.99607843"
             inkscape:connector-curvature="0"
             id="path3945"
             d="M 94.9,113.8 91.1,111 27.6,111 C 25.2,111 23,108.9 23,106.5 L 23,50.8 C 23,48.4 25.2,46 27.6,46 l 4.2,0 c -0.7,-3 -1,-7 -0.4,-10 l -3.7,0 C 19.5,36 13,42.7 13,50.8 l 0,55.8 c 0,8.1 6.5,14.5 14.6,14.5 l 79.6,0 c -4.1,-2 -8.2,-4.8 -12.1,-7.5 -0.1,-0.1 -0.1,0.1 -0.2,0.2 z" /><path
             style="fill:#2c3e50;fill-opacity:0.99607843"
             inkscape:connector-curvature="0"
             id="path3947"
             d="m 48.4,36 c 1.8,3 4,7 6.7,10 l 1.8,0 c 3.4,-3 4.2,-4.5 7.5,-7.5 -0.7,3 -1.2,5.5 -1.6,7.5 l 52.7,0 c 2.4,0 4.4,2.4 4.4,4.8 l 0,48.7 0,1.8 0,5.3 c 0,1 -0.4,2 -1,2.7 3.6,2.1 6.6,3.5 9.3,4.4 1.2,-2.1 1.7,-4.5 1.7,-7.1 l 0,-5.3 0,-1.8 0,-5.6 0,-7.8 0,-35.3 C 129.9,42.7 123.6,36 115.5,36 l -30.2,0 -6.6,0 -30.3,0 z" /><path
             style="fill:#149c82;fill-opacity:0.99607843"
             inkscape:connector-curvature="0"
             id="path3949"
             d="m 31.7,46.4 c 1.4,6.8 4.5,13.8 7.6,20 -2.6,3.1 -2.9,3.6 -5.6,7.5 3.8,0.2 5.2,0.3 12,1.1 5.4,0.7 10.8,1.4 16.2,2 -0.7,-9.9 -0.5,-13.1 -0.3,-20 0.4,-4.8 0.7,-7.8 1.2,-10.6 0.4,-2.3 0.9,-4.5 1.6,-7.5 -3.3,3 -4.1,3.8 -7.5,7.5 -0.3,0.3 -0.7,0.7 -1,1.1 -0.3,-0.4 -0.5,-0.7 -0.8,-1.1 -2.7,-3.7 -5,-7.2 -6.7,-10.3 -2.5,-4.4 -4.1,-8.2 -4.8,-11.4 -0.7,-3.5 -0.3,-6.3 1.3,-8.2 -0.8,0.8 -1.8,1.7 -2.7,2.6 -0.9,0.9 -1.8,1.8 -2.6,2.6 -1.6,1.7 -2.1,2.4 -3.4,4.2 -0.7,1 -1.6,2.3 -3.1,4.4 -1,1.8 -1.6,3.7 -1.9,5.8 -0.4,3.2 -0.2,6.7 0.5,10.3 z" /><path
             style="fill:#149c82;fill-opacity:0.99607843"
             inkscape:connector-curvature="0"
             id="path3951"
             d="m 133.7,114.6 c -1.5,0 -3.3,-0.4 -5.3,-1 -2.7,-0.9 -5.9,-2.3 -9.4,-4.4 -2.8,-1.6 -5.8,-3.6 -9,-6 L 97.2,93.1 c 1.5,-3.4 2,-7 1.3,-10.1 C 98,80.3 96.7,77.6 94.5,75.3 89.6,70 82.3,68.1 75.6,69.9 l 9.8,10.6 -3.1,9.9 -10.1,2.3 -9.8,-10.6 c -2.3,6.5 -1,13.9 3.9,19.2 2.2,2.4 4.8,3.9 7.5,4.7 3,0.9 6.6,0.7 10.1,-0.6 l 1.3,1 c 0,0 -0.1,0.1 -0.1,0.1 1,0.7 2.1,1.4 3.2,2.2 l 2.8,2.1 3.8,2.8 c 0.1,-0.1 0.1,-0.1 0.1,-0.2 3.9,2.7 8,5.5 12.1,7.6 7.9,4.1 15.8,6.1 22.3,1.6 1,-0.9 2.1,-2 3.2,-3.1 1,-1 2.1,-2 2.9,-2.9 0.7,-0.8 1.5,-1.7 2.2,-2.7 0.5,-0.6 0.9,-1.2 1.3,-1.7 -0.9,1.7 -2.7,2.5 -5.3,2.4 z" /></g></g></g></g></svg>