<?xml version="1.0" standalone="no"?>
<!DOCTYPE svg PUBLIC "-//W3C//DTD SVG 20010904//EN"
 "http://www.w3.org/TR/2001/REC-SVG-20010904/DTD/svg10.dtd">
<svg version="1.0" xmlns="http://www.w3.org/2000/svg"
 width="57.000000pt" height="48.000000pt" viewBox="0 0 57.000000 48.000000"
 preserveAspectRatio="xMidYMid meet">
<metadata>
Created by potrace 1.11, written by Peter Selinger 2001-2013
</metadata>
<g transform="translate(0.000000,48.000000) scale(0.100000,-0.100000)"
fill="#000000" stroke="none">
<path d="M107 440 c-19 -22 -45 -43 -58 -45 -43 -8 -49 -30 -49 -165 0 -172
-8 -164 167 -167 76 -1 184 -4 239 -7 97 -5 103 -5 128 19 31 29 33 63 7 97
-15 19 -20 44 -23 107 -3 108 -17 122 -124 120 -58 -1 -79 3 -101 19 -43 30
-93 54 -124 59 -22 3 -33 -4 -62 -37z m138 -24 c30 -13 30 -13 -24 -17 -53 -4
-81 7 -81 33 0 12 59 3 105 -16z m-151 -95 c13 -28 15 -44 8 -57 -9 -16 -6
-19 16 -20 15 0 43 -3 62 -5 38 -4 35 -11 39 92 l1 27 118 -3 c64 -1 120 -3
125 -3 4 -1 7 -56 7 -122 l0 -120 -49 32 c-33 22 -47 37 -44 49 8 28 -14 57
-53 69 -44 15 -55 6 -26 -21 18 -16 20 -24 12 -39 -13 -24 -52 -26 -70 -5 -17
21 -30 19 -30 -5 0 -32 44 -70 80 -70 17 0 29 -3 26 -8 -8 -13 -256 -7 -265 6
-9 15 -7 214 3 230 12 20 22 14 40 -27z m436 -201 c0 -16 -4 -30 -9 -30 -5 0
-8 8 -6 18 2 9 4 23 4 30 2 26 11 11 11 -18z"/>
<path d="M97 44 c-4 -4 -7 -13 -7 -21 0 -10 37 -13 181 -13 166 0 180 1 177
18 -3 15 -21 17 -174 20 -93 1 -173 -1 -177 -4z"/>
</g>
</svg>
